<?xml version="1.0" encoding="utf-8"?>
<!-- Generator: Adobe Illustrator 21.0.2, SVG Export Plug-In . SVG Version: 6.00 Build 0)  -->
<svg version="1.1" id="Layer_1" xmlns="http://www.w3.org/2000/svg" xmlns:xlink="http://www.w3.org/1999/xlink" x="0px" y="0px"
	 viewBox="0 0 684.3 545.4" style="enable-background:new 0 0 684.3 545.4;" xml:space="preserve">
<style type="text/css">
	.st0{fill:#F1B631;}
</style>
<g>
	<path class="st0" d="M285.3,543.2c12.2,1,23.7,1.8,36,2.1V319c-12.2,5.2-24.2,10.7-36.1,16.5L285.3,543.2z"/>
	<path class="st0" d="M546.9,183.7l-30.3,4.1c-3.4,0.5-6.6,1-9.7,1.3c-36.6,6.2-72.7,14.6-108.3,25.2V38.7
		c12.8,1.3,25.5,3.1,38.1,5.4l55.6,111.2c2.3-0.5,4.8-1,7.3-1.4l30.1-4.4L461.1,12.1c-14.6-3.1-29.3-5.7-44.2-7.6
		c-18-2.4-36.2-3.9-54.5-4.5v225.7c-13.6,4.6-27.2,9.6-40.6,14.9V0c-18.3,0.6-36.5,2.1-54.5,4.5c-14.8,2-29.6,4.5-44.2,7.6L0,458.6
		c9.5,5.2,19,10.1,28.7,14.8l28.1-26.6c22.5-20.4,45.9-39.6,70.1-57.5c21.5-15.9,43.7-30.9,66.5-44.8l0.7-0.4
		c38-23.1,77.7-43.5,119-61c29.7-12.6,59.9-23.5,90.6-32.8c0.3-0.1,0.6-0.2,0.9-0.3c39.8-12,80.2-21.2,121.3-27.6l16.5,33
		l93.6,187.2c-2.5,1.2-5,2.4-7.5,3.6c-7.3,3.4-14.7,6.6-22.1,9.8c-19.4,8.2-39.1,15.5-59,21.8c-4.9,1.6-9.9,3.1-14.8,4.5
		c-43.7,12.8-88.5,21-134.1,24.7V289.9c-12.1,4-24.1,8.2-36.1,12.7v242.7c89.4-2.5,176.1-21.2,258.1-55.9c5.3-2.3,10.6-4.6,15.9-7
		l47.9-23.8L546.9,183.7z M285.8,255.7C211.6,288.3,142.6,330,79.5,380.2L247.6,44.1c12.6-2.3,25.3-4.1,38.1-5.4V255.7z"/>
</g>
</svg>
