<?xml version="1.0" encoding="utf-8"?>
<!-- Generator: Adobe Illustrator 21.0.2, SVG Export Plug-In . SVG Version: 6.00 Build 0)  -->
<svg version="1.1" id="Layer_1" xmlns="http://www.w3.org/2000/svg" xmlns:xlink="http://www.w3.org/1999/xlink" x="0px" y="0px"
	 viewBox="0 0 119.2 119.1" style="enable-background:new 0 0 119.2 119.1;" xml:space="preserve">
<style type="text/css">
	.st0{clip-path:url(#SVGID_2_);}
</style>
<g>
	<g>
		<defs>
			<path id="SVGID_1_" d="M59.6,119.1C26.7,119.1,0,92.4,0,59.5C0,26.7,26.7,0,59.6,0s59.6,26.7,59.6,59.5
				C119.2,92.4,92.5,119.1,59.6,119.1z M109.9,67.7c-1.7-0.5-15.8-4.7-31.7-2.2c6.7,18.3,9.4,33.2,9.9,36.3
				C99.5,94,107.6,81.8,109.9,67.7z M79.5,106.4c-0.8-4.5-3.7-20-10.9-38.6c-0.1,0-0.2,0.1-0.3,0.1c-28.7,10-39,29.9-39.9,31.8
				c8.6,6.7,19.5,10.7,31.3,10.7C66.7,110.5,73.4,109,79.5,106.4z M21.8,93.6c1.2-2,15.1-25.1,41.4-33.6c0.7-0.2,1.3-0.4,2-0.6
				c-1.3-2.9-2.7-5.8-4.1-8.6c-25.4,7.6-50.1,7.3-52.3,7.2c0,0.5,0,1,0,1.6C8.7,72.7,13.7,84.6,21.8,93.6z M9.8,49.2
				c2.3,0,23.3,0.1,47.1-6.2C48.4,28,39.3,15.4,38,13.6C23.7,20.3,13.1,33.4,9.8,49.2z M47.7,10.2c1.4,1.9,10.7,14.5,19,29.8
				c18.1-6.8,25.8-17.1,26.7-18.4c-9-8-20.8-12.8-33.8-12.8C55.5,8.8,51.5,9.3,47.7,10.2z M99,27.5c-1.1,1.4-9.6,12.4-28.4,20
				c1.2,2.4,2.3,4.9,3.4,7.4c0.4,0.9,0.7,1.8,1.1,2.6c16.9-2.1,33.8,1.3,35.5,1.6C110.4,47.1,106.1,36.1,99,27.5z"/>
		</defs>
		<use xlink:href="#SVGID_1_"  style="overflow:visible;fill-rule:evenodd;clip-rule:evenodd;fill:#FFFFFF;"/>
		<clipPath id="SVGID_2_">
			<use xlink:href="#SVGID_1_"  style="overflow:visible;"/>
		</clipPath>
		<g class="st0">
			<defs>
				<rect id="SVGID_3_" x="-0.3" y="-0.4" width="119.8" height="119.8"/>
			</defs>
			<use xlink:href="#SVGID_3_"  style="overflow:visible;fill:#FFFFFF;"/>
			<clipPath id="SVGID_4_">
				<use xlink:href="#SVGID_3_"  style="overflow:visible;"/>
			</clipPath>
		</g>
	</g>
</g>
</svg>
